<svg width="40" height="40" viewBox="0 0 40 40" fill="none" xmlns="http://www.w3.org/2000/svg">
<g clip-path="url(#clip0_234_19)">
<rect width="40" height="40" rx="20" fill="white"/>
<mask id="mask0_234_19" style="mask-type:luminance" maskUnits="userSpaceOnUse" x="0" y="0" width="40" height="40">
<path d="M0 0H40V40H0V0Z" fill="white"/>
<path fill-rule="evenodd" clip-rule="evenodd" d="M21.9539 13.0862C21.9539 16.0738 23.5892 18.1754 26.5692 19.2308V21.5385C26.5692 21.9465 26.7313 22.3378 27.0198 22.6263C27.3084 22.9148 27.6997 23.0769 28.1077 23.0769C28.5157 23.0769 28.907 22.9148 29.1956 22.6263C29.4841 22.3378 29.6462 21.9465 29.6462 21.5385V6.92307C29.6462 6.66159 29.5795 6.40443 29.4525 6.17586C29.3255 5.9473 29.1423 5.75487 28.9203 5.61676C28.6983 5.47864 28.4447 5.3994 28.1836 5.38651C27.9224 5.37361 27.6623 5.4275 27.4277 5.54307C23.8646 7.29846 21.9539 9.84923 21.9539 13.0862ZM25.0308 13.0862C25.0308 11.8246 25.5215 10.7246 26.5692 9.76154V15.8708C25.5 15.2385 25.0308 14.3338 25.0308 13.0862Z" fill="black"/>
<path d="M25.0307 31.5385V23.8462C25.0307 23.0301 25.3549 22.2475 25.9319 21.6704C26.5089 21.0934 27.2915 20.7692 28.1076 20.7692C28.9237 20.7692 29.7063 21.0934 30.2833 21.6704C30.8603 22.2475 31.1845 23.0301 31.1845 23.8462V31.5385C31.1845 32.3545 30.8603 33.1371 30.2833 33.7142C29.7063 34.2912 28.9237 34.6154 28.1076 34.6154C27.2915 34.6154 26.5089 34.2912 25.9319 33.7142C25.3549 33.1371 25.0307 32.3545 25.0307 31.5385ZM9.66606 8.38462C9.67616 8.18278 9.72592 7.98492 9.81249 7.80232C9.89906 7.61971 10.0207 7.45595 10.1706 7.32038C10.3205 7.1848 10.4956 7.08007 10.6859 7.01217C10.8762 6.94426 11.0781 6.91451 11.2799 6.92462C11.4817 6.93472 11.6796 6.98447 11.8622 7.07104C12.0448 7.15761 12.2086 7.2793 12.3441 7.42916C12.4797 7.57902 12.5844 7.75412 12.6524 7.94445C12.7203 8.13479 12.75 8.33663 12.7399 8.53846C12.6168 11.0046 12.743 12.6646 13.0476 13.3969C13.1938 13.7508 13.4368 13.8815 14.143 13.84C14.5504 13.8167 14.9504 13.9563 15.2549 14.2279C15.5594 14.4996 15.7436 14.881 15.7668 15.2885C15.7901 15.6959 15.6505 16.0958 15.3789 16.4004C15.1073 16.7049 14.7258 16.8891 14.3184 16.9123C12.383 17.0246 10.8891 16.2262 10.2045 14.5754C9.67683 13.3015 9.52144 11.28 9.66606 8.38462Z" fill="black"/>
<path d="M21.1029 8.38462C21.0928 8.18278 21.043 7.98492 20.9564 7.80232C20.8699 7.61971 20.7482 7.45595 20.5983 7.32038C20.4485 7.1848 20.2734 7.08007 20.083 7.01217C19.8927 6.94426 19.6909 6.91451 19.489 6.92462C19.2872 6.93472 19.0893 6.98447 18.9067 7.07104C18.7241 7.15761 18.5604 7.2793 18.4248 7.42916C18.2892 7.57902 18.1845 7.75412 18.1166 7.94445C18.0487 8.13478 18.0189 8.33663 18.029 8.53846C18.1521 11.0046 18.0259 12.6646 17.7213 13.3969C17.5736 13.7508 17.3321 13.8815 16.6259 13.84C16.2185 13.8165 15.8185 13.9559 15.5138 14.2274C15.2091 14.4989 15.0248 14.8803 15.0013 15.2877C14.9779 15.6951 15.1172 16.0952 15.3887 16.3998C15.6602 16.7045 16.0416 16.8888 16.449 16.9123C18.3844 17.0246 19.8798 16.2262 20.5644 14.5754C21.0921 13.3015 21.2475 11.28 21.1029 8.38462Z" fill="black"/>
<path d="M13.8459 8.46153C13.8459 8.05351 14.008 7.6622 14.2966 7.37368C14.5851 7.08516 14.9764 6.92307 15.3844 6.92307C15.7924 6.92307 16.1837 7.08516 16.4723 7.37368C16.7608 7.6622 16.9229 8.05351 16.9229 8.46153V22.3077C16.9229 22.7157 16.7608 23.107 16.4723 23.3955C16.1837 23.6841 15.7924 23.8462 15.3844 23.8462C14.9764 23.8462 14.5851 23.6841 14.2966 23.3955C14.008 23.107 13.8459 22.7157 13.8459 22.3077V8.46153Z" fill="black"/>
<path d="M12.3076 31.5385V23.8461C12.3076 23.0301 12.6318 22.2475 13.2088 21.6704C13.7859 21.0934 14.5685 20.7692 15.3845 20.7692C16.2006 20.7692 16.9832 21.0934 17.5603 21.6704C18.1373 22.2475 18.4615 23.0301 18.4615 23.8461V31.5385C18.4615 32.3545 18.1373 33.1371 17.5603 33.7142C16.9832 34.2912 16.2006 34.6154 15.3845 34.6154C14.5685 34.6154 13.7859 34.2912 13.2088 33.7142C12.6318 33.1371 12.3076 32.3545 12.3076 31.5385Z" fill="black"/>
</mask>
<g mask="url(#mask0_234_19)">
<path d="M20 40C31.0457 40 40 31.0457 40 20C40 8.9543 31.0457 0 20 0C8.9543 0 0 8.9543 0 20C0 31.0457 8.9543 40 20 40Z" fill="#262327"/>
</g>
</g>
<defs>
<clipPath id="clip0_234_19">
<rect width="40" height="40" rx="20" fill="white"/>
</clipPath>
</defs>
</svg>
